<?xml version="1.0" standalone="no"?>
<!DOCTYPE svg PUBLIC "-//W3C//DTD SVG 20010904//EN"
 "http://www.w3.org/TR/2001/REC-SVG-20010904/DTD/svg10.dtd">
<svg version="1.0" xmlns="http://www.w3.org/2000/svg"
 width="420.000000pt" height="420.000000pt" viewBox="0 0 420.000000 420.000000"
 preserveAspectRatio="xMidYMid meet">
<metadata>
Created by potrace 1.14, written by Peter Selinger 2001-2017
</metadata>
<g transform="translate(0.000000,420.000000) scale(0.100000,-0.100000)"
fill="#000000" stroke="none">
<path d="M1815 3310 c-22 -4 -62 -11 -90 -15 -53 -9 -255 -102 -298 -138 -14
-12 -45 -38 -69 -57 -53 -42 -122 -111 -168 -169 -19 -25 -40 -49 -46 -55 -16
-16 -39 -60 -36 -68 1 -5 -3 -8 -10 -8 -6 0 -9 -3 -5 -6 3 -4 -9 -35 -28 -70
-19 -35 -37 -76 -40 -91 -3 -16 -8 -41 -10 -57 -3 -16 -8 -32 -10 -36 -10 -17
-18 -118 -18 -241 1 -128 3 -140 29 -200 21 -46 25 -64 16 -67 -24 -8 -61 -48
-72 -78 -24 -62 -1 -239 45 -350 7 -18 11 -35 8 -38 -3 -3 -1 -11 4 -18 6 -7
14 -23 17 -35 7 -22 5 -23 -57 -23 -57 0 -68 -3 -92 -27 l-27 -28 6 -160 c3
-88 9 -198 12 -245 3 -47 7 -119 9 -160 9 -204 18 -377 20 -390 2 -17 -23 -61
-42 -73 -7 -4 -13 -15 -13 -22 0 -8 -4 -15 -10 -15 -5 0 -10 -7 -10 -15 0 -8
-3 -15 -7 -15 -9 0 -57 -82 -85 -143 -9 -20 -15 -37 -12 -37 3 0 0 -8 -5 -18
-10 -19 -18 -51 -26 -110 l-5 -32 1391 0 1391 0 -7 46 c-12 89 -97 272 -158
341 -25 28 -25 22 -2 453 2 30 6 127 10 215 4 88 9 168 10 177 4 17 7 132 6
181 -1 17 -12 38 -27 52 -22 21 -37 25 -85 25 -33 0 -59 1 -59 3 0 1 11 34 25
72 14 39 25 70 24 70 0 0 5 20 12 45 7 25 14 52 16 60 9 34 15 162 9 194 -8
43 -59 96 -91 96 l-24 0 25 44 c64 115 84 302 51 489 -15 86 -29 128 -67 205
-27 53 -60 111 -75 127 -14 17 -49 56 -76 87 -27 31 -73 74 -102 95 -29 21
-60 45 -71 55 -22 20 -128 74 -138 70 -5 -1 -8 3 -8 8 0 6 -9 10 -20 10 -11 0
-20 4 -20 9 0 5 -19 14 -42 19 -24 6 -68 17 -98 26 -30 8 -93 17 -139 20 -78
5 -88 4 -146 -24 l-62 -30 -60 30 c-32 16 -74 32 -93 34 -70 11 -136 13 -175
6z"/>
</g>
</svg>
